<svg viewBox="-1 -1 13 13" fill="none" xmlns="http://www.w3.org/2000/svg">
<path d="M5.49992 6.41732V7.33398C4.77057 7.33398 4.0711 7.62372 3.55538 8.13944C3.03965 8.65517 2.74992 9.35464 2.74992 10.084H1.83325C1.83325 9.11152 2.21956 8.17889 2.90719 7.49126C3.59483 6.80363 4.52746 6.41732 5.49992 6.41732ZM5.49992 5.95898C3.98054 5.95898 2.74992 4.72836 2.74992 3.20898C2.74992 1.68961 3.98054 0.458984 5.49992 0.458984C7.01929 0.458984 8.24992 1.68961 8.24992 3.20898C8.24992 4.72836 7.01929 5.95898 5.49992 5.95898ZM5.49992 5.04232C6.51284 5.04232 7.33325 4.2219 7.33325 3.20898C7.33325 2.19607 6.51284 1.37565 5.49992 1.37565C4.487 1.37565 3.66659 2.19607 3.66659 3.20898C3.66659 4.2219 4.487 5.04232 5.49992 5.04232ZM9.62492 7.79232H10.0833V10.084H6.41659V7.79232H6.87492V7.33398C6.87492 6.96931 7.01978 6.61958 7.27765 6.36171C7.53551 6.10385 7.88525 5.95898 8.24992 5.95898C8.61459 5.95898 8.96433 6.10385 9.22219 6.36171C9.48005 6.61958 9.62492 6.96931 9.62492 7.33398V7.79232ZM8.70825 7.79232V7.33398C8.70825 7.21243 8.65996 7.09585 8.57401 7.00989C8.48806 6.92394 8.37148 6.87565 8.24992 6.87565C8.12836 6.87565 8.01178 6.92394 7.92583 7.00989C7.83987 7.09585 7.79159 7.21243 7.79159 7.33398V7.79232H8.70825Z" fill="#1E6EB3"/>
</svg>
