<svg width="14" height="14" viewBox="0 0 14 14" fill="none" xmlns="http://www.w3.org/2000/svg">
<path d="M14 14H12.7852C12.673 14 12.5848 13.9736 12.5206 13.9208C12.4565 13.8615 12.4044 13.8054 12.3643 13.7527L7 7.29187C6.96793 7.39081 6.9118 7.48975 6.83161 7.58869L1.56357 13.7527C1.50745 13.812 1.44731 13.8681 1.38316 13.9208C1.32703 13.9736 1.25086 14 1.15464 14H0L6.15807 6.81696L0.276632 0H1.49141C1.60367 0 1.68385 0.0197881 1.73196 0.0593644C1.78809 0.0989398 1.8362 0.145112 1.87629 0.19788L7.04811 6.32226C7.09622 6.22332 7.15636 6.12438 7.22852 6.02544L12.2199 0.207774C12.26 0.14841 12.3081 0.0989398 12.3643 0.0593644C12.4284 0.0197881 12.5006 0 12.5808 0H13.7594L7.87801 6.7576L14 14Z" fill="white"/>
</svg>
