<svg width="10" height="10" viewBox="0 0 10 10" fill="none" xmlns="http://www.w3.org/2000/svg">
<path fillRule="evenodd" clipRule="evenodd" d="M5.24746 0.0585938C4.7149 0.0585938 4.28318 0.490318 4.28318 1.02288V3.59432H1.71184C1.17928 3.59432 0.747559 4.02605 0.747559 4.55861C0.747559 5.09117 1.17928 5.52289 1.71184 5.52289H4.28318V8.09431C4.28318 8.62687 4.7149 9.05859 5.24746 9.05859C5.78002 9.05859 6.21175 8.62687 6.21175 8.09431V5.52289H8.78327C9.31583 5.52289 9.74756 5.09117 9.74756 4.55861C9.74756 4.02605 9.31583 3.59432 8.78327 3.59432H6.21175V1.02288C6.21175 0.490319 5.78002 0.0585938 5.24746 0.0585938Z" fill="#1E96FC"/>
</svg>
