<svg width="20" height="21" viewBox="0 0 20 21" fill="none" xmlns="http://www.w3.org/2000/svg">
<path d="M19.4497 3.35599C19.3383 1.24525 13.5879 0.675781 10.1649 0.675781C6.74193 0.675781 0.880127 1.25144 0.880127 3.4117V17.3946C0.880127 19.5549 6.71717 20.1367 10.1649 20.1367C13.6127 20.1367 19.4497 19.5611 19.4497 17.3946V3.4117V3.35599ZM18.2118 8.03554C18.0075 8.56786 15.0797 9.55205 10.1649 9.55205C7.86612 9.61072 5.57138 9.327 3.35607 8.71023V9.99772C5.58245 10.552 7.87076 10.8183 10.1649 10.79C12.6409 10.79 16.3115 10.4929 18.2118 9.55205V12.7522C18.0075 13.2845 15.0797 14.2687 10.1649 14.2687C7.86488 14.3193 5.57012 14.0273 3.35607 13.4022V14.6896C5.58245 15.244 7.87076 15.5102 10.1649 15.4819C12.6409 15.4819 16.3115 15.1848 18.2118 14.244V17.4008C17.9951 17.9331 15.0673 18.9173 10.1649 18.9173C5.26255 18.9173 2.3038 17.9084 2.1181 17.3946V3.43646C2.3038 2.92889 5.21303 1.91376 10.1649 1.91376C14.9745 1.91376 17.8775 2.86081 18.2118 3.38075C17.8899 3.91927 14.9868 4.86013 10.1649 4.86013C7.86619 4.91742 5.57164 4.63373 3.35607 4.01831V5.31199C5.58297 5.86281 7.8711 6.12698 10.1649 6.09811C12.6409 6.09811 16.3115 5.80099 18.2118 4.86013V8.03554Z" fill="currentColor"/>
</svg>
