<svg width="20" height="17" viewBox="0 0 20 17" fill="none" xmlns="http://www.w3.org/2000/svg">
<path d="M9.77164 4.20447C9.27706 4.20505 8.78656 4.29404 8.3233 4.46725L13.7011 9.84502C13.8766 9.37603 13.9656 8.87911 13.9639 8.37836C13.959 7.26969 13.5152 6.20809 12.7295 5.42585C11.9439 4.64362 10.8803 4.20446 9.77164 4.20447Z" fill="#6A6874"/>
<path d="M19.5006 8.09103C17.4411 4.28381 13.8294 1.97992 9.83278 1.97992C8.7446 1.98247 7.66374 2.15781 6.63055 2.49936L7.61444 3.48936C8.33913 3.30208 9.08429 3.2056 9.83278 3.20214C13.2733 3.20214 16.4022 5.12103 18.2661 8.35381C17.5824 9.55318 16.676 10.611 15.5956 11.4705L16.4633 12.3383C17.7137 11.3295 18.7522 10.0834 19.5189 8.67159L19.6778 8.37825L19.5006 8.09103Z" fill="#6A6874"/>
<path d="M1.52167 0.910556L4.24722 3.63611C2.52445 4.74535 1.11644 6.27964 0.158889 8.09111L0 8.37833L0.158889 8.67167C2.21833 12.4789 5.83 14.7828 9.82666 14.7828C11.3866 14.7825 12.9263 14.4294 14.3306 13.75L17.3861 16.8056L18.4556 15.8889L2.56667 0L1.52167 0.910556ZM6.59389 5.98278C6.02215 6.78908 5.75418 7.77168 5.8374 8.7566C5.92063 9.74153 6.34969 10.6652 7.04862 11.3642C7.74755 12.0631 8.67125 12.4921 9.65617 12.5754C10.6411 12.6586 11.6237 12.3906 12.43 11.8189L13.4078 12.7967C12.2759 13.2805 11.0577 13.53 9.82666 13.53C6.38611 13.53 3.25722 11.6111 1.39333 8.37833C2.28782 6.79447 3.57605 5.46835 5.13333 4.52833L6.59389 5.98278Z" fill="#6A6874"/>
</svg>
