<svg width="20" height="13" viewBox="0 0 20 13" fill="none" xmlns="http://www.w3.org/2000/svg">
<path d="M19.8383 6.20525C17.7425 2.33938 14.0672 0 10 0C5.93284 0 2.25124 2.33938 0.174129 6.20525L0 6.4969L0.161692 6.79475C2.25746 10.6606 5.93284 13 10 13C14.0672 13 17.7488 10.6916 19.8383 6.79475L20 6.4969L19.8383 6.20525ZM10 11.7279C6.49876 11.7279 3.28358 9.77948 1.41791 6.4969C3.28358 3.21432 6.49876 1.26587 10 1.26587C13.5012 1.26587 16.6791 3.22052 18.5759 6.4969C16.6791 9.77948 13.495 11.7279 10 11.7279Z" fill="#606063"/>
<path d="M10.1804 10.7723C12.5365 10.7723 14.4465 8.8665 14.4465 6.51553C14.4465 4.16456 12.5365 2.25873 10.1804 2.25873C7.82421 2.25873 5.91418 4.16456 5.91418 6.51553C5.91418 8.8665 7.82421 10.7723 10.1804 10.7723Z" fill="#606063"/>
</svg>
