<svg width="25" height="20" viewBox="0 0 25 20" fill="none" xmlns="http://www.w3.org/2000/svg">
<path d="M17.5 8.50684H7C6.87969 8.50684 6.78125 8.60527 6.78125 8.72559V19.7178C6.78125 19.8381 6.87969 19.9365 7 19.9365H17.5C17.6203 19.9365 17.7188 19.8381 17.7188 19.7178V8.72559C17.7188 8.60527 17.6203 8.50684 17.5 8.50684ZM8.53125 10.2568H15.9688V13.4561H8.53125V10.2568ZM15.9688 18.1865H8.53125V14.9873H15.9688V18.1865Z" fill="currentColor"/>
<path d="M9.84375 16.7646C9.84375 16.9967 9.93594 17.2193 10.1 17.3834C10.2641 17.5475 10.4867 17.6396 10.7188 17.6396C10.9508 17.6396 11.1734 17.5475 11.3375 17.3834C11.5016 17.2193 11.5938 16.9967 11.5938 16.7646C11.5938 16.5326 11.5016 16.31 11.3375 16.1459C11.1734 15.9818 10.9508 15.8896 10.7188 15.8896C10.4867 15.8896 10.2641 15.9818 10.1 16.1459C9.93594 16.31 9.84375 16.5326 9.84375 16.7646ZM9.84375 11.8975C9.84375 12.1295 9.93594 12.3521 10.1 12.5162C10.2641 12.6803 10.4867 12.7725 10.7188 12.7725C10.9508 12.7725 11.1734 12.6803 11.3375 12.5162C11.5016 12.3521 11.5938 12.1295 11.5938 11.8975C11.5938 11.6654 11.5016 11.4428 11.3375 11.2787C11.1734 11.1146 10.9508 11.0225 10.7188 11.0225C10.4867 11.0225 10.2641 11.1146 10.1 11.2787C9.93594 11.4428 9.84375 11.6654 9.84375 11.8975Z" fill="currentColor"/>
<path d="M20.4368 6.39863C19.1845 3.09277 15.9934 0.741211 12.2556 0.741211C8.51766 0.741211 5.32664 3.09004 4.0743 6.3959C1.72 7.0166 -0.0135916 9.16855 8.03016e-05 11.7225C0.0164866 14.5771 2.23133 16.8986 5.02039 17.1475C5.14891 17.1584 5.25828 17.0572 5.25828 16.9287V15.2771C5.25828 15.1678 5.17625 15.0748 5.06688 15.0611C4.3286 14.9682 3.63133 14.6455 3.09539 14.1178C2.43914 13.4752 2.07821 12.6111 2.07821 11.6951C2.07821 10.9295 2.32703 10.2076 2.79461 9.60606C3.25125 9.0209 3.89383 8.59707 4.60203 8.41113L5.63836 8.1377L6.01844 7.13418C6.2536 6.51074 6.58172 5.92559 6.99461 5.39785C7.40203 4.87285 7.88602 4.41348 8.42743 4.03066C9.55125 3.24043 10.8747 2.82207 12.2556 2.82207C13.6364 2.82207 14.9598 3.24043 16.0837 4.0334C16.6278 4.41621 17.1091 4.87559 17.5165 5.40059C17.9294 5.92832 18.2575 6.51348 18.4927 7.13691L18.87 8.1377L19.9036 8.41113C21.3856 8.80488 22.422 10.1529 22.422 11.6924C22.422 12.6111 22.061 13.4725 21.4048 14.115C20.8716 14.64 20.177 14.9654 19.4388 15.0584C19.3294 15.0721 19.2501 15.165 19.2501 15.2744V16.9287C19.2501 17.0572 19.3622 17.1584 19.4907 17.1475C22.2716 16.8959 24.4809 14.5771 24.5001 11.7279C24.5165 9.17402 22.7856 7.02207 20.4368 6.39863Z" fill="currentColor"/>
</svg>
