<svg width="22" height="22" viewBox="0 0 22 22" fill="none" xmlns="http://www.w3.org/2000/svg">
<path d="M20.13 14.2314H18.6149V15.7466H20.13V20.292H1.94848V15.7466H9.52412V14.2314H1.94848C1.54676 14.2318 1.16162 14.3916 0.877564 14.6757C0.593509 14.9597 0.433751 15.3449 0.43335 15.7466V20.292C0.433751 20.6937 0.593509 21.0788 0.877564 21.3629C1.16162 21.6469 1.54676 21.8067 1.94848 21.8071H20.13C20.5317 21.8067 20.9169 21.6469 21.2009 21.3629C21.485 21.0788 21.6448 20.6937 21.6452 20.292V15.7466C21.6448 15.3449 21.485 14.9597 21.2009 14.6757C20.9169 14.3916 20.5317 14.2318 20.13 14.2314Z" fill="currentColor"/>
<path d="M4.22119 18.7768C4.63958 18.7768 4.97875 18.4377 4.97875 18.0193C4.97875 17.6009 4.63958 17.2617 4.22119 17.2617C3.8028 17.2617 3.46362 17.6009 3.46362 18.0193C3.46362 18.4377 3.8028 18.7768 4.22119 18.7768Z" fill="currentColor"/>
<path d="M21.6451 5.14062H15.5846V9.68601H11.0392V15.7465H17.0998V11.2011H21.6451V5.14062ZM15.5846 14.2314H12.5544V11.2011H15.5846V14.2314ZM20.13 9.68601H17.0998V6.65575H20.13V9.68601Z" fill="currentColor"/>
<path d="M12.5543 6.65622H6.49384V0.595703H12.5543V6.65622ZM8.00896 5.14109H11.0392V2.11083H8.00896V5.14109Z" fill="currentColor"/>
</svg>
