<svg width="24" height="21" viewBox="0 0 24 21" fill="none" xmlns="http://www.w3.org/2000/svg">
<path d="M15.0112 13.2542V11.0676C15.0112 10.2944 14.704 9.55288 14.1573 9.00613C13.6105 8.45939 12.869 8.15223 12.0958 8.15223C11.3226 8.15223 10.581 8.45939 10.0343 9.00613C9.48752 9.55288 9.18036 10.2944 9.18036 11.0676V13.2542C8.79387 13.2546 8.42332 13.4083 8.15004 13.6816C7.87675 13.9549 7.72304 14.3254 7.72266 14.7119V19.085C7.72304 19.4715 7.87675 19.8421 8.15004 20.1154C8.42332 20.3887 8.79387 20.5424 9.18036 20.5427H15.0112C15.3977 20.5424 15.7682 20.3887 16.0415 20.1154C16.3148 19.8421 16.4685 19.4715 16.4689 19.085V14.7119C16.4685 14.3254 16.3148 13.9549 16.0415 13.6816C15.7682 13.4083 15.3977 13.2546 15.0112 13.2542ZM10.6381 11.0676C10.6381 10.681 10.7917 10.3103 11.065 10.0369C11.3384 9.76352 11.7092 9.60994 12.0958 9.60994C12.4824 9.60994 12.8532 9.76352 13.1265 10.0369C13.3999 10.3103 13.5535 10.681 13.5535 11.0676V13.2542H10.6381V11.0676ZM9.18036 19.085V14.7119H15.0112L15.0119 19.085H9.18036Z" fill="currentColor"/>
<path d="M19.2598 6.04918C18.9837 4.61743 18.2849 3.30129 17.2534 2.27064C16.222 1.23998 14.9053 0.542138 13.4734 0.267179C12.5328 0.0854208 11.5656 0.0908316 10.6271 0.283102C9.68863 0.475372 8.79724 0.85073 8.00391 1.38772C7.21058 1.92471 6.53087 2.61279 6.00363 3.41264C5.4764 4.21248 5.11198 5.1084 4.93121 6.04918C3.58762 6.29138 2.38323 7.02745 1.55487 8.11268C0.726498 9.1979 0.334079 10.5538 0.454767 11.9137C0.575455 13.2736 1.20052 14.5391 2.20705 15.4615C3.21359 16.3839 4.52878 16.8964 5.89403 16.8982H6.26501V15.4405H5.89694C4.8961 15.4386 3.93211 15.0626 3.19436 14.3863C2.45662 13.7099 1.99844 12.7822 1.90986 11.7853C1.82127 10.7883 2.10867 9.79432 2.7156 8.9985C3.32253 8.20267 4.20511 7.66257 5.18996 7.48429L6.17391 7.30572L6.36268 6.32541C6.61924 4.99308 7.33184 3.79171 8.37804 2.92775C9.42423 2.0638 10.7387 1.59121 12.0955 1.59121C13.4523 1.59121 14.7667 2.0638 15.8129 2.92775C16.8591 3.79171 17.5717 4.99308 17.8283 6.32541L18.0171 7.30572L19.0003 7.48429C19.9848 7.6625 20.8672 8.20232 21.4741 8.99776C22.081 9.7932 22.3687 10.7868 22.2806 11.7835C22.1925 12.7801 21.735 13.7078 20.9979 14.3845C20.2609 15.0611 19.2975 15.4377 18.2969 15.4405H17.9267V16.8982H18.2969C19.6621 16.8962 20.9772 16.3836 21.9836 15.4612C22.99 14.5387 23.6149 13.2732 23.7355 11.9133C23.8561 10.5535 23.4636 9.19768 22.6353 8.11253C21.8069 7.02738 20.6026 6.29136 19.259 6.04918H19.2598Z" fill="currentColor"/>
</svg>
