<svg width="43" height="43" viewBox="0 0 43 43" fill="none" xmlns="http://www.w3.org/2000/svg">
<ellipse cx="21.1768" cy="21.5008" rx="20.5301" ry="20.8485" fill="white"/>
<path fill-rule="evenodd" clip-rule="evenodd" d="M21.2575 2.60547C10.946 2.60547 2.58643 11.0283 2.58643 21.418C2.58643 31.8076 10.946 40.2305 21.2575 40.2305C31.569 40.2305 39.9285 31.8076 39.9285 21.418C39.9285 11.0283 31.569 2.60547 21.2575 2.60547ZM29.3505 18.2369C29.4996 18.0653 29.613 17.8654 29.6842 17.6489C29.7554 17.4325 29.7829 17.2038 29.7651 16.9765C29.7474 16.7491 29.6846 16.5277 29.5807 16.3251C29.4767 16.1226 29.3335 15.943 29.1597 15.797C28.9858 15.651 28.7847 15.5416 28.5682 15.475C28.3517 15.4085 28.1242 15.3863 27.8991 15.4096C27.6739 15.433 27.4557 15.5015 27.2572 15.6111C27.0588 15.7207 26.8841 15.8692 26.7434 16.0479L19.4447 24.8709L15.668 21.064C15.3479 20.7524 14.9192 20.58 14.4741 20.5839C14.0291 20.5878 13.6033 20.7677 13.2886 21.0848C12.9739 21.4019 12.7954 21.8308 12.7916 22.2792C12.7877 22.7277 12.9588 23.1597 13.268 23.4822L18.3601 28.6129C18.5268 28.7808 18.7265 28.9119 18.9464 28.9978C19.1662 29.0837 19.4014 29.1225 19.6369 29.1117C19.8725 29.1009 20.1032 29.0408 20.3144 28.9352C20.5257 28.8296 20.7127 28.6808 20.8637 28.4983L29.3505 18.2369Z" fill="#08AD36"/>
</svg>
