<svg width="15" height="15" viewBox="0 0 15 15" fill="none" xmlns="http://www.w3.org/2000/svg">
<path d="M5.625 5.625H6.5625V11.25H5.625V5.625Z" fill="#6A6874"/>
<path d="M8.4375 5.625H9.375V11.25H8.4375V5.625Z" fill="#6A6874"/>
<path d="M1.875 2.8125V3.75H2.8125V13.125C2.8125 13.3736 2.91127 13.6121 3.08709 13.7879C3.2629 13.9637 3.50136 14.0625 3.75 14.0625H11.25C11.4986 14.0625 11.7371 13.9637 11.9129 13.7879C12.0887 13.6121 12.1875 13.3736 12.1875 13.125V3.75H13.125V2.8125H1.875ZM3.75 13.125V3.75H11.25V13.125H3.75Z" fill="#6A6874"/>
<path d="M5.625 0.9375H9.375V1.875H5.625V0.9375Z" fill="#6A6874"/>
</svg>
