<svg width="35%" height="35%" viewBox="0 0 15 13" fill="none" xmlns="http://www.w3.org/2000/svg">
  <path d="M13.6111 2H11.25L10.6875 0.378572C10.6486 0.267622 10.5774 0.171718 10.4836 0.10396C10.3897 0.0362025 10.2779 -0.000104039 10.1632 2.23934e-07H4.83681C4.60243 2.23934e-07 4.39236 0.151786 4.31424 0.378572L3.75 2H1.38889C0.621528 2 0 2.63929 0 3.42857V11.5714C0 12.3607 0.621528 13 1.38889 13H13.6111C14.3785 13 15 12.3607 15 11.5714V3.42857C15 2.63929 14.3785 2 13.6111 2ZM13.75 11.5714C13.75 11.65 13.6875 11.7143 13.6111 11.7143H1.38889C1.3125 11.7143 1.25 11.65 1.25 11.5714V3.42857C1.25 3.35 1.3125 3.28571 1.38889 3.28571H4.63021L4.92708 2.43214L5.32465 1.28571H9.67361L10.0712 2.43214L10.3681 3.28571H13.6111C13.6875 3.28571 13.75 3.35 13.75 3.42857V11.5714ZM7.5 4.42857C5.96528 4.42857 4.72222 5.70714 4.72222 7.28571C4.72222 8.86429 5.96528 10.1429 7.5 10.1429C9.03472 10.1429 10.2778 8.86429 10.2778 7.28571C10.2778 5.70714 9.03472 4.42857 7.5 4.42857ZM7.5 9C6.57986 9 5.83333 8.23214 5.83333 7.28571C5.83333 6.33929 6.57986 5.57143 7.5 5.57143C8.42014 5.57143 9.16667 6.33929 9.16667 7.28571C9.16667 8.23214 8.42014 9 7.5 9Z" fill="white" />
</svg>