<svg width="18" height="18" viewBox="0 0 18 18" fill="none" xmlns="http://www.w3.org/2000/svg">
<path d="M7.28571 1V3.28571L6.14286 3.85714L4.42857 2.14286L2.14286 4.42857L3.85714 6.14286L3.28571 7.28571H1V10.7143H3.28571L3.85714 11.8571L2.14286 13.5714L4.42857 15.8571L6.14286 14.1429L7.28571 14.7143V17H10.7143V14.7143L11.8571 14.1429L13.5714 15.8571L15.8571 13.5714L14.1429 11.8571L14.7143 10.7143H17V7.28571H14.7143L14.1429 6.14286L15.8571 4.42857L13.5714 2.14286L11.8571 3.85714L10.7143 3.28571V1H7.28571Z" stroke="white" stroke-linecap="round" stroke-linejoin="round"/>
<path d="M9.00007 11.2858C10.2624 11.2858 11.2858 10.2624 11.2858 9.00007C11.2858 7.7377 10.2624 6.71436 9.00007 6.71436C7.7377 6.71436 6.71436 7.7377 6.71436 9.00007C6.71436 10.2624 7.7377 11.2858 9.00007 11.2858Z" stroke="white" stroke-linecap="round" stroke-linejoin="round"/>
</svg>
